<?xml version="1.0" encoding="UTF-8" standalone="no"?>
<svg
   viewBox="0 0 24 24"
   fill="currentColor"
   class="w-6 h-6"
   version="1.1"
   id="svg4"
   sodipodi:docname="battery-fill.svg"
   inkscape:version="1.2.1 (9c6d41e410, 2022-07-14)"
   xmlns:inkscape="http://www.inkscape.org/namespaces/inkscape"
   xmlns:sodipodi="http://sodipodi.sourceforge.net/DTD/sodipodi-0.dtd"
   xmlns="http://www.w3.org/2000/svg"
   xmlns:svg="http://www.w3.org/2000/svg">
  <sodipodi:namedview
     id="namedview8"
     pagecolor="#ffffff"
     bordercolor="#000000"
     borderopacity="0.25"
     inkscape:showpageshadow="2"
     inkscape:pageopacity="0.0"
     inkscape:pagecheckerboard="0"
     inkscape:deskcolor="#d1d1d1"
     showgrid="false"
     inkscape:zoom="42.791667"
     inkscape:cx="11.988315"
     inkscape:cy="11.988315"
     inkscape:window-width="2560"
     inkscape:window-height="1417"
     inkscape:window-x="-8"
     inkscape:window-y="-8"
     inkscape:window-maximized="1"
     inkscape:current-layer="svg4" />
  <defs
     id="defs8" />
  <g
     id="g3590">
    <path
       style="fill:#333333;stroke:#ffffff;stroke-opacity:1;fill-opacity:1;stroke-width:1;stroke-dasharray:none"
       d="m 3.75,6.75 a 3,3 0 0 0 -3,3 v 6 a 3,3 0 0 0 3,3 h 15 a 3,3 0 0 0 3,-3 v -0.037 c 0.856,-0.174 1.5,-0.93 1.5,-1.838 v -2.25 c 0,-0.907 -0.644,-1.664 -1.5,-1.837 V 9.75 a 3,3 0 0 0 -3,-3 z"
       id="path2" />
    <path
       style="display:none;fill:#ffffff;fill-opacity:1;stroke:#333333;stroke-width:0.5;stroke-dasharray:none;stroke-opacity:1"
       d="m 18.75,8.25 a 1.5,1.5 0 0 1 1.5,1.5 v 6 a 1.5,1.5 0 0 1 -1.5,1.5 h -15 a 1.5,1.5 0 0 1 -1.5,-1.5 v -6 a 1.5,1.5 0 0 1 1.5,-1.5 z"
       id="path919" />
    <path
       style="fill:#333333;stroke:#ffffff;stroke-opacity:1;fill-opacity:1;opacity:1;stroke-width:1;stroke-dasharray:none"
       d="M 4.5,9.75 A 0.75,0.75 0 0 0 3.75,10.5 V 15 c 0,0.414 0.336,0.75 0.75,0.75 H 18 A 0.75,0.75 0 0 0 18.75,15 V 10.5 A 0.75,0.75 0 0 0 18,9.75 Z"
       id="path921" />
  </g>
</svg>
